<svg width="75" height="80" viewBox="0 0 75 80" fill="none" xmlns="http://www.w3.org/2000/svg">
<path d="M67.0604 78.939H7.41064L14.8793 72.8712V7.86654C14.8793 4.10319 17.9298 1.05273 21.6931 1.05273H67.0687C70.8321 1.05273 73.8825 4.10319 73.8825 7.86654V72.1334C73.8742 75.8885 70.8238 78.939 67.0604 78.939Z" fill="#FAFCFB"/>
<path d="M67.0604 80H7.4106C6.96298 80 6.56509 79.7182 6.41588 79.2954C6.26667 78.8727 6.3993 78.4002 6.74745 78.1183L13.8265 72.3655V7.86654C13.8265 3.53124 17.3578 0 21.6931 0H67.0687C71.404 0 74.9352 3.53124 74.9352 7.86654V72.1335C74.9352 76.4688 71.404 80 67.0604 80ZM10.3865 77.8862H67.0687C70.2435 77.8862 72.8214 75.3 72.8214 72.1335V7.86654C72.8214 4.69174 70.2352 2.11377 67.0687 2.11377H21.6931C18.5183 2.11377 15.9403 4.70003 15.9403 7.86654V72.8712C15.9403 73.1862 15.7994 73.4929 15.5507 73.6918L10.3865 77.8862Z" fill="#0F0F0F"/>
<path d="M27.2054 21.1874C27.2054 22.0448 27.546 22.8671 28.1523 23.4734C28.7586 24.0797 29.5809 24.4203 30.4383 24.4203C31.2957 24.4203 32.118 24.0797 32.7242 23.4734C33.3305 22.8671 33.6711 22.0448 33.6711 21.1874C33.6711 20.33 33.3305 19.5078 32.7242 18.9015C32.118 18.2952 31.2957 17.9546 30.4383 17.9546C29.5809 17.9546 28.7586 18.2952 28.1523 18.9015C27.546 19.5078 27.2054 20.33 27.2054 21.1874Z" fill="#0F0F0F"/>
<path d="M53.4659 21.1874C53.4659 22.0448 53.8065 22.8671 54.4128 23.4734C55.0191 24.0797 55.8414 24.4203 56.6988 24.4203C57.5562 24.4203 58.3784 24.0797 58.9847 23.4734C59.591 22.8671 59.9316 22.0448 59.9316 21.1874C59.9316 20.33 59.591 19.5078 58.9847 18.9015C58.3784 18.2952 57.5562 17.9546 56.6988 17.9546C55.8414 17.9546 55.0191 18.2952 54.4128 18.9015C53.8065 19.5078 53.4659 20.33 53.4659 21.1874Z" fill="#0F0F0F"/>
<path d="M51.0952 27.993C51.0952 32.1376 47.7049 35.5196 43.5686 35.5196C39.4239 35.5196 36.0419 32.1293 36.0419 27.993" fill="#FAFCFB"/>
<path d="M43.5686 36.5807C38.8354 36.5807 34.9808 32.7261 34.9808 27.993C34.9808 27.4127 35.4533 26.9402 36.0336 26.9402C36.6138 26.9402 37.0863 27.4127 37.0863 27.993C37.0863 31.5656 39.9876 34.4669 43.5603 34.4669C47.1329 34.4669 50.0342 31.5656 50.0342 27.993C50.0342 27.4127 50.5067 26.9402 51.0869 26.9402C51.6672 26.9402 52.1397 27.4127 52.1397 27.993C52.1563 32.7344 48.3017 36.5807 43.5686 36.5807ZM39.714 48.0531H22.779C22.1987 48.0531 21.7263 47.5806 21.7263 47.0003C21.7263 46.4201 22.1987 45.9476 22.779 45.9476H39.7057C40.286 45.9476 40.7585 46.4201 40.7585 47.0003C40.7668 47.5723 40.2943 48.0531 39.714 48.0531ZM39.714 56.7319H22.779C22.1987 56.7319 21.7263 56.2595 21.7263 55.6792C21.7263 55.099 22.1987 54.6265 22.779 54.6265H39.7057C40.286 54.6265 40.7585 55.099 40.7585 55.6792C40.7585 56.2595 40.2943 56.7319 39.714 56.7319ZM39.714 65.4108H22.779C22.1987 65.4108 21.7263 64.9384 21.7263 64.3581C21.7263 63.7779 22.1987 63.3054 22.779 63.3054H39.7057C40.286 63.3054 40.7585 63.7779 40.7585 64.3581C40.7668 64.9384 40.2943 65.4108 39.714 65.4108ZM64.7726 65.4108H48.2769C47.6966 65.4108 47.2241 64.9384 47.2241 64.3581C47.2241 63.7779 47.6966 63.3054 48.2769 63.3054H64.7726C65.3528 63.3054 65.8253 63.7779 65.8253 64.3581C65.8336 64.9384 65.3611 65.4108 64.7726 65.4108Z" fill="#141414"/>
<path d="M61.7967 58.9369H51.261C49.9762 58.9369 48.94 57.9007 48.94 56.6159V48.9317C48.94 47.6469 49.9762 46.6107 51.261 46.6107H61.805C63.0898 46.6107 64.126 47.6469 64.126 48.9317V56.6159C64.126 57.9007 63.0815 58.9369 61.7967 58.9369Z" fill="#9DC6AF"/>
<path d="M61.8464 59.9896H51.2113C49.371 59.9896 47.879 58.4976 47.879 56.6573V48.882C47.879 47.0418 49.371 45.5497 51.2113 45.5497H61.8464C63.6867 45.5497 65.1787 47.0418 65.1787 48.882V56.6573C65.1787 58.4976 63.6867 59.9896 61.8464 59.9896ZM51.2113 47.6635C50.5398 47.6635 49.9927 48.2105 49.9927 48.882V56.6573C49.9927 57.3288 50.5398 57.8759 51.2113 57.8759H61.8464C62.5179 57.8759 63.065 57.3288 63.065 56.6573V48.882C63.065 48.2105 62.5179 47.6635 61.8464 47.6635H51.2113Z" fill="#191919"/>
<path d="M8.20641 78.939H7.73392C4.04518 78.939 1.06104 75.9548 1.06104 72.2661V17.4655C1.06104 15.1197 2.95928 13.2214 5.30516 13.2214H14.8793V72.2661C14.8793 75.9548 11.8869 78.939 8.20641 78.939Z" fill="#9DC6AF"/>
<path d="M7.96601 80C3.57269 80 0 76.4273 0 72.034V17.6148C0 14.614 2.44534 12.1687 5.44607 12.1687H15.9237V72.034C15.932 76.4273 12.3593 80 7.96601 80ZM5.45436 14.2742C3.61413 14.2742 2.12206 15.7745 2.12206 17.6065V72.0257C2.12206 75.2502 4.74977 77.8779 7.9743 77.8779C11.1988 77.8779 13.8265 75.2502 13.8265 72.0257V14.2742H5.45436Z" fill="#191919"/>
</svg>
